<?xml version="1.0" encoding="iso-8859-1"?>
<!-- Generator: Adobe Illustrator 19.0.0, SVG Export Plug-In . SVG Version: 6.00 Build 0)  -->
<svg version="1.1" id="Capa_1" xmlns="http://www.w3.org/2000/svg" xmlns:xlink="http://www.w3.org/1999/xlink" x="0px" y="0px"
	 viewBox="0 0 512 512" style="enable-background:new 0 0 512 512;" xml:space="preserve">
<path style="fill:#455058;" d="M208.559,409.581h130.16c22.604,0,43.857-8.803,59.841-24.786
	c24.072-24.073,44.259-38.995,81.204-38.995H512v48.51h-32.234c-18.829,0-27.677,5.56-46.903,24.786
	c-25.148,25.147-58.581,38.995-94.142,38.995H208.559V409.581z"/>
<path style="fill:#3C464D;" d="M392.642,390.177c-15.14,12.561-34.003,19.403-53.922,19.403H208.559v48.509h109.664
	c17.558-10.128,33.904-22.621,48.621-37.338C376.391,411.208,385.002,400.978,392.642,390.177z"/>
<circle style="fill:#BAB8B9;" cx="202.091" cy="255.999" r="202.091"/>
<path style="fill:#9E9C9D;" d="M232.997,447.789c-111.612,0-202.092-90.48-202.092-202.092c0-83.485,50.625-155.139,122.848-185.956
	C65.487,81.409,0,161.05,0,255.999c0,111.612,90.48,202.092,202.092,202.092c28.128,0,54.91-5.753,79.244-16.136
	C265.844,445.758,249.659,447.789,232.997,447.789z"/>
<g>
	<circle style="fill:#EFEDEE;" cx="312.186" cy="221.437" r="49.675"/>
	<circle style="fill:#EFEDEE;" cx="271.896" cy="347.655" r="49.675"/>
	<circle style="fill:#EFEDEE;" cx="132.286" cy="347.655" r="49.675"/>
	<circle style="fill:#EFEDEE;" cx="91.995" cy="221.437" r="49.675"/>
	<circle style="fill:#EFEDEE;" cx="202.091" cy="140.784" r="49.675"/>
	<circle style="fill:#EFEDEE;" cx="202.091" cy="255.999" r="29.041"/>
</g>
<g>
	<path style="fill:#455058;" d="M263.787,232.623c5.725,24.777,29.062,40.89,53.73,38.198c0.617-4.853,0.935-9.8,0.935-14.821
		c0-30.07-11.407-57.475-30.129-78.126C269.28,188.293,258.66,210.434,263.787,232.623z"/>
	<path style="fill:#455058;" d="M304.899,310.533c-17.397-15.5-43.873-17.041-63.104-2.397
		c-19.231,14.645-24.785,40.58-14.468,61.471C260.978,362.166,289.151,340.158,304.899,310.533z"/>
	<path style="fill:#455058;" d="M162.388,308.137c-19.23-14.645-45.708-13.103-63.104,2.397
		c15.747,29.625,43.921,51.633,77.573,59.075C187.173,348.716,181.619,322.782,162.388,308.137z"/>
	<path style="fill:#455058;" d="M115.859,177.874c-18.721,20.651-30.129,48.056-30.129,78.126c0,5.021,0.318,9.968,0.935,14.821
		c24.668,2.692,48.005-13.421,53.73-38.198C145.522,210.434,134.903,188.293,115.859,177.874z"/>
	<path style="fill:#455058;" d="M202.092,139.638c-17.41,0-33.923,3.83-48.753,10.684c4.447,22.873,24.579,40.143,48.753,40.143
		s44.306-17.27,48.753-40.143C236.014,143.469,219.502,139.638,202.092,139.638z"/>
</g>
<g>
</g>
<g>
</g>
<g>
</g>
<g>
</g>
<g>
</g>
<g>
</g>
<g>
</g>
<g>
</g>
<g>
</g>
<g>
</g>
<g>
</g>
<g>
</g>
<g>
</g>
<g>
</g>
<g>
</g>
</svg>
